PathFileType   4   (X/Y/Z)
DataRate	CameraRate	NumFrames	NumMarkers	Units	OrigDataRate	OrigDataStartFrame	OrigNumFrames
120.0	120.0	7	37	mm	120.0	32	125
Frame#	Time	midhip	hip_r	hip_l	knee_r	knee_l	ankle_r	ankle_l	midasis	asis_r	asis_l	psis_r	psis_l	epicondLat_r	epicondLat_l	epicondMed_r	epicondMed_l	malleolusLat_r	malleolusLat_l	malleolusMedv_r	malleolusMedv_l	neck	subclavicle_r	subclavicle_l	sternalnotch	xyphoidprocess	thighwand_r	thighwand_l	upperleg1_r	upperleg1_l	upperleg2_r	upperleg2_l	shankwand_r	shankwand_l	lowerleg1_r	lowerleg1_l	toe_r	toe_l
 	 	X1	Y1	Z1	X2	Y2	Z2	X3	Y3	Z3	X4	Y4	Z4	X5	Y5	Z5	X6	Y6	Z6	X7	Y7	Z7	X8	Y8	Z8	X9	Y9	Z9	X10	Y10	Z10	X11	Y11	Z11	X12	Y12	Z12	X13	Y13	Z13	X14	Y14	Z14	X15	Y15	Z15	X16	Y16	Z16	X17	Y17	Z17	X18	Y18	Z18	X19	Y19	Z19	X20	Y20	Z20	X21	Y21	Z21	X22	Y22	Z22	X23	Y23	Z23	X24	Y24	Z24	X25	Y25	Z25	X26	Y26	Z26	X27	Y27	Z27	X28	Y28	Z28	X29	Y29	Z29	X30	Y30	Z30	X31	Y31	Z31	X32	Y32	Z32	X33	Y33	Z33	X34	Y34	Z34	X35	Y35	Z35	X36	Y36	Z36	X37	Y37	Z37

	32	0.38333	302.013	773.149	-286.297	282.679	776.638	-207.144	283.805	776.022	-362.768	471.919	423.136	-191.655	245.397	425.526	-329.987	444.934	76.506	-206.384	203.858	59.495	-308.700	411.345	847.901	-284.313	410.452	848.390	-160.818	412.239	847.411	-407.807	169.594	918.737	-249.363	167.205	920.434	-304.486	482.117	431.674	-121.403	243.534	419.072	-401.171	477.528	423.053	-256.337	239.047	423.647	-249.382	433.223	75.860	-169.714	186.649	59.381	-344.254	457.826	86.040	-241.884	198.780	79.688	-268.086	206.608	1341.166	-291.588	333.986	1278.352	-249.365	335.914	1281.435	-329.970	318.763	1274.305	-302.419	372.988	1202.529	-302.694	550.749	652.529	-143.647	448.411	579.247	-353.440	507.154	650.812	-158.115	403.605	599.880	-361.415	525.223	574.818	-159.604	375.886	533.488	-353.973	539.701	210.885	-166.347	191.907	161.393	-418.085	498.408	222.795	-182.216	193.224	177.098	-372.950	546.351	58.890	-183.357	302.043	46.331	-319.764
	33	0.39167	310.510	772.108	-285.396	291.696	775.603	-206.190	291.891	775.091	-361.818	480.733	422.560	-192.917	250.239	425.083	-329.228	472.120	74.473	-205.943	204.002	59.742	-307.965	420.020	846.700	-284.078	419.865	847.107	-160.141	420.175	846.292	-408.015	178.521	917.958	-247.939	175.897	919.647	-303.045	492.148	431.305	-122.878	248.202	418.697	-400.413	482.217	421.417	-256.650	244.047	424.668	-247.877	460.235	73.397	-169.339	186.875	59.838	-343.558	485.518	84.824	-241.332	199.449	80.019	-267.388	215.258	1340.065	-291.187	343.228	1276.988	-249.409	344.537	1281.103	-330.035	327.331	1273.394	-302.253	382.048	1201.969	-304.019	559.689	651.423	-147.259	454.449	577.452	-352.938	516.670	649.540	-161.677	410.165	598.722	-361.159	532.962	573.853	-162.041	381.889	532.474	-353.153	560.241	213.721	-165.749	193.605	161.618	-417.305	519.996	223.792	-181.753	195.213	177.046	-372.495	574.464	60.735	-182.293	302.124	46.332	-319.653
	34	0.40000	319.018	771.049	-284.493	300.736	774.491	-205.224	300.029	774.137	-360.851	489.568	421.889	-194.139	255.373	424.571	-328.495	498.405	73.127	-205.317	204.161	60.001	-307.210	428.733	845.439	-283.782	429.298	845.721	-159.437	428.168	845.156	-408.127	187.551	917.092	-246.567	184.691	918.823	-301.602	502.125	430.809	-124.318	253.143	418.267	-399.682	488.797	419.620	-258.353	247.622	426.225	-244.500	486.392	71.651	-168.769	187.120	60.315	-342.844	511.071	84.125	-240.718	199.880	80.465	-266.597	223.794	1338.738	-291.276	351.638	1276.054	-248.784	353.143	1280.429	-329.976	335.927	1272.369	-302.080	390.853	1201.335	-303.796	568.384	649.951	-150.694	460.661	575.666	-352.498	525.197	647.892	-164.751	415.999	597.433	-360.927	541.092	572.369	-164.921	386.081	529.773	-351.602	580.031	216.733	-165.121	195.395	161.832	-416.547	539.638	224.066	-180.812	197.146	177.366	-371.896	601.512	63.052	-181.169	302.229	46.333	-319.455
	35	0.40833	327.580	769.943	-283.605	309.816	773.316	-204.277	308.237	773.171	-359.898	498.465	421.194	-195.338	260.767	424.013	-327.804	523.765	72.386	-204.492	204.343	60.279	-306.470	437.497	844.142	-283.457	438.762	844.259	-158.788	436.232	844.026	-408.126	196.679	916.147	-245.241	193.571	917.971	-300.160	512.065	430.247	-125.729	258.313	417.803	-398.992	498.463	417.472	-261.396	256.941	421.180	-245.936	511.674	70.551	-167.986	187.388	60.817	-342.142	536.207	83.769	-239.818	200.123	80.748	-265.755	232.087	1337.432	-291.209	359.735	1275.288	-248.371	361.582	1278.688	-329.707	344.610	1271.260	-301.842	399.161	1199.905	-302.366	576.864	648.179	-153.893	467.058	573.855	-352.171	532.362	646.124	-167.011	421.961	596.167	-360.039	550.081	570.329	-168.264	393.610	529.272	-351.956	599.057	219.886	-164.503	197.254	162.056	-415.852	558.853	224.809	-180.158	199.115	177.859	-370.967	627.442	65.793	-179.990	302.381	46.325	-319.195
	36	0.41667	336.239	768.798	-282.765	318.953	772.098	-203.370	316.538	772.197	-358.980	507.446	420.536	-196.519	266.374	423.430	-327.171	548.159	72.171	-203.466	204.562	60.588	-305.790	446.326	842.833	-283.126	448.264	842.753	-158.248	444.388	842.913	-408.003	205.896	915.144	-243.950	202.518	917.089	-298.727	521.970	429.676	-127.109	263.654	417.329	-398.358	505.068	415.195	-263.613	266.864	416.527	-247.357	536.049	70.028	-166.983	187.690	61.358	-341.497	560.345	84.457	-238.858	200.761	81.081	-265.058	240.696	1336.207	-290.447	368.445	1274.089	-248.105	370.147	1276.932	-329.823	353.397	1270.081	-301.515	407.628	1198.264	-301.829	585.181	646.183	-156.806	473.642	571.992	-352.007	539.899	643.794	-169.288	428.583	594.944	-359.056	557.893	567.938	-171.072	401.731	529.163	-352.288	617.319	223.142	-163.953	199.174	162.312	-415.250	577.059	226.869	-179.606	201.384	178.143	-370.318	652.221	68.898	-178.802	302.595	46.305	-318.907
	37	0.42500	345.039	767.654	-282.010	328.160	770.855	-202.510	324.946	771.215	-358.105	516.522	419.948	-197.680	272.133	422.850	-326.615	571.572	72.397	-202.259	204.838	60.941	-305.220	455.230	841.528	-282.803	457.811	841.238	-157.842	452.648	841.817	-407.763	215.188	914.107	-242.677	211.514	916.173	-297.314	531.840	429.124	-128.445	269.093	416.876	-397.800	509.553	412.614	-264.321	267.714	421.198	-245.851	559.512	70.006	-165.775	188.042	61.952	-340.957	583.821	85.197	-237.617	202.141	81.082	-264.506	249.557	1334.910	-289.771	377.409	1272.566	-247.651	379.157	1276.124	-329.467	362.248	1268.831	-301.122	416.727	1197.264	-302.069	593.393	644.047	-159.379	480.410	570.072	-352.044	549.012	641.605	-172.882	436.148	593.590	-358.722	564.723	565.285	-172.990	406.126	527.523	-351.534	634.825	226.448	-163.533	201.148	162.626	-414.766	594.191	229.049	-179.575	204.102	178.129	-369.599	675.821	72.300	-177.693	302.868	46.273	-318.618
	38	0.43333	353.957	766.512	-281.332	337.435	769.612	-201.691	333.463	770.223	-357.268	525.708	419.440	-198.806	278.004	422.284	-326.153	593.940	72.978	-200.912	205.195	61.352	-304.798	464.208	840.240	-282.491	467.398	839.750	-157.564	461.019	840.730	-407.417	224.542	913.059	-241.402	220.552	915.224	-295.924	541.679	428.595	-129.716	274.582	416.464	-397.334	519.654	409.092	-265.282	274.319	420.734	-246.141	582.008	70.406	-164.398	188.466	62.611	-340.558	606.649	85.769	-236.081	203.509	81.111	-264.099	258.307	1333.714	-289.215	386.326	1271.025	-247.016	388.656	1275.280	-328.568	371.165	1267.530	-300.683	426.143	1196.244	-301.686	601.572	641.854	-161.560	487.353	568.099	-352.320	558.917	639.977	-177.893	443.911	591.826	-358.821	572.544	562.707	-174.651	413.535	526.364	-351.787	651.583	229.744	-163.301	203.173	163.019	-414.418	610.978	230.739	-179.804	206.799	178.257	-368.951	698.216	75.919	-176.761	303.183	46.236	-318.341
